# Blender v2.79 (sub 0) OBJ File: 'turret_base.blend'
# www.blender.org
o Circle
v 0.000000 -0.496377 0.000000
v -0.197347 -0.496377 -0.476437
v -0.476437 -0.496377 -0.197347
v -0.476437 -0.496377 0.197347
v -0.197347 -0.496377 0.476437
v 0.197347 -0.496377 0.476437
v 0.476437 -0.496377 0.197347
v 0.476437 -0.496377 -0.197347
v 0.197347 -0.496377 -0.476437
v -0.137855 -0.324433 -0.332811
v -0.332811 -0.324433 -0.137855
v -0.332811 -0.324433 0.137855
v -0.137855 -0.324433 0.332811
v 0.137855 -0.324433 0.332811
v 0.332811 -0.324433 0.137855
v 0.332811 -0.324433 -0.137855
v 0.137855 -0.324433 -0.332811
v -0.085103 -0.284420 -0.205456
v -0.205456 -0.284420 -0.085103
v -0.205456 -0.284420 0.085103
v -0.085103 -0.284420 0.205456
v 0.085103 -0.284420 0.205456
v 0.205456 -0.284420 0.085103
v 0.205456 -0.284420 -0.085103
v 0.085103 -0.284420 -0.205456
v 0.085103 -0.284420 0.085103
v 0.085103 -0.284420 -0.085103
v -0.085103 -0.284420 -0.085103
v -0.085103 -0.284420 0.085103
v 0.085103 -0.437020 0.085103
v 0.085103 -0.437020 -0.085103
v -0.085103 -0.437020 -0.085103
v -0.085103 -0.437020 0.085103
vt 0.781573 0.220888
vt 0.569127 0.132890
vt 0.693575 0.008442
vt 0.569127 0.308886
vt 0.693575 0.433334
vt 0.869571 0.433334
vt 0.994019 0.308886
vt 0.994019 0.132890
vt 0.869571 0.008442
vt 0.161886 0.516299
vt 0.204126 0.412559
vt 0.331909 0.412231
vt 0.368504 0.515631
vt 0.413542 0.332033
vt 0.514254 0.368737
vt 0.413699 0.201406
vt 0.514254 0.161932
vt 0.016902 0.369864
vt 0.121986 0.333421
vt 0.329292 0.121933
vt 0.368533 0.015778
vt 0.203427 0.120086
vt 0.162362 0.016822
vt 0.121016 0.201154
vt 0.018980 0.165065
vt 0.337453 0.783599
vt 0.275699 0.761230
vt 0.275717 0.678170
vt 0.335912 0.655179
vt 0.235941 0.555628
vt 0.216541 0.615195
vt 0.125886 0.618111
vt 0.105100 0.556878
vt 0.005730 0.653788
vt 0.065179 0.674734
vt 0.067891 0.757737
vt 0.004121 0.785544
vt 0.239626 0.881365
vt 0.214644 0.819291
vt 0.124636 0.819669
vt 0.106581 0.881980
vt 0.650106 0.586128
vt 0.600454 0.633320
vt 0.600453 0.586128
vt 0.510460 0.633320
vt 0.510460 0.586128
vt 0.459578 0.494905
vt 0.510461 0.494905
vt 0.459578 0.586128
vt 0.600453 0.494905
vt 0.650106 0.494905
vt 0.818308 0.517226
vt 0.901986 0.517226
vt 0.901986 0.603447
vt 0.818308 0.603447
vt 0.510460 0.442792
vt 0.600454 0.442792
vt 0.816185 0.519299
vt 0.899862 0.519299
vt 0.899862 0.603311
vt 0.816185 0.603311
vt 0.814989 0.516682
vt 0.903598 0.516682
vt 0.903598 0.606928
vt 0.814989 0.606928
vt 0.816423 0.516132
vt 0.900100 0.516132
vt 0.900100 0.605290
vt 0.816423 0.605290
vt 0.692193 0.607335
vt 0.692193 0.523657
vt 0.775871 0.523657
vt 0.775871 0.607334
vn 0.0000 -1.0000 0.0000
vn 0.0000 0.6411 -0.7675
vn 0.5427 0.6411 -0.5427
vn 0.7675 0.6411 -0.0000
vn -0.5427 0.6411 -0.5427
vn 0.5427 0.6411 0.5427
vn 0.0000 0.6411 0.7675
vn -0.5427 0.6411 0.5427
vn -0.7675 0.6411 0.0000
vn 0.2997 0.9540 0.0000
vn 0.0000 0.9540 0.2997
vn -0.2997 0.9540 0.0000
vn 0.2119 0.9540 -0.2119
vn 0.2119 0.9540 0.2119
vn -0.2119 0.9540 0.2119
vn -0.2119 0.9540 -0.2119
vn 0.0000 0.9540 -0.2997
vn 0.0000 1.0000 0.0000
vn 1.0000 0.0000 -0.0000
vn 0.0000 0.0000 1.0000
vn -1.0000 0.0000 -0.0000
vn -0.0000 0.0000 -1.0000
s off
f 1/1/1 3/2/1 2/3/1
f 1/1/1 4/4/1 3/2/1
f 1/1/1 5/5/1 4/4/1
f 1/1/1 6/6/1 5/5/1
f 1/1/1 7/7/1 6/6/1
f 1/1/1 8/8/1 7/7/1
f 1/1/1 9/9/1 8/8/1
f 1/1/1 2/3/1 9/9/1
f 2/10/2 10/11/2 17/12/2 9/13/2
f 9/13/3 17/12/3 16/14/3 8/15/3
f 8/15/4 16/14/4 15/16/4 7/17/4
f 3/18/5 11/19/5 10/11/5 2/10/5
f 7/17/6 15/16/6 14/20/6 6/21/6
f 6/21/7 14/20/7 13/22/7 5/23/7
f 5/23/8 13/22/8 12/24/8 4/25/8
f 4/25/9 12/24/9 11/19/9 3/18/9
f 16/26/10 24/27/10 23/28/10 15/29/10
f 14/30/11 22/31/11 21/32/11 13/33/11
f 12/34/12 20/35/12 19/36/12 11/37/12
f 17/38/13 25/39/13 24/27/13 16/26/13
f 15/29/14 23/28/14 22/31/14 14/30/14
f 13/33/15 21/32/15 20/35/15 12/34/15
f 11/37/16 19/36/16 18/40/16 10/41/16
f 10/41/17 18/40/17 25/39/17 17/38/17
f 24/42/18 25/43/18 27/44/18
f 25/43/18 18/45/18 28/46/18 27/44/18
f 20/47/18 29/48/18 28/46/18 19/49/18
f 18/45/18 19/49/18 28/46/18
f 26/50/18 23/51/18 24/42/18 27/44/18
f 28/52/19 29/53/19 33/54/19 32/55/19
f 20/47/18 21/56/18 29/48/18
f 22/57/18 26/50/18 29/48/18 21/56/18
f 23/51/18 26/50/18 22/57/18
f 27/58/20 28/59/20 32/60/20 31/61/20
f 26/62/21 27/63/21 31/64/21 30/65/21
f 29/66/22 26/67/22 30/68/22 33/69/22
f 30/70/18 31/71/18 32/72/18 33/73/18
